<?xml version="1.0" encoding="UTF-8"?>
<svg id="Layer_1" data-name="Layer 1" xmlns="http://www.w3.org/2000/svg" viewBox="0 0 4246.47 2038.91">
  <defs>
    <style>
      .cls-1 {
        fill: #fff;
      }
    </style>
  </defs>
  <g>
    <path class="cls-1" d="M2222.29,27.28h172.27c53.12,0,106.23,0,159.35,1.44,41.63-1.44,84.7,4.31,124.9,15.79,22.97,7.18,45.94,17.23,66.04,31.58,44.5,31.58,55.99,80.39,53.12,130.64-2.87,51.68-15.79,100.49-37.33,147.87-38.76,84.7-107.67,132.07-196.68,149.3-34.45,5.74-70.34,10.05-106.23,11.48-48.81,1.44-97.62,0-144.99,0h-38.76c-15.79,71.78-30.15,142.12-44.5,211.03h-152.17c48.81-236.87,96.18-466.57,144.99-699.13ZM2347.19,163.66c-14.36,70.34-28.71,142.12-44.5,215.34h50.25c55.99,0,113.41,1.44,169.4-1.44,38.76,0,73.22-21.53,91.88-55.99,15.79-30.15,22.97-63.17,21.53-97.62,1.44-25.84-15.79-48.81-41.63-54.55-11.48-4.31-22.97-5.74-34.45-7.18-68.91,1.44-139.25,1.44-212.47,1.44Z"/>
    <path class="cls-1" d="M331.62,712.05h-152.17C228.26,478.05,277.07,248.36,324.44,15.79h91.88c86.14,0,173.71,0,261.28,1.44,50.25-1.44,100.49,8.61,146.43,30.15,45.94,21.53,74.65,67.47,74.65,117.72,2.87,61.73-10.05,122.02-35.89,178.01-34.45,76.09-96.18,122.02-176.58,143.56-40.2,10.05-80.39,15.79-122.02,15.79h-186.63c-18.66,67.47-28.71,139.25-45.94,209.6ZM404.84,367.51c77.52,0,149.3,1.44,221.08,0,35.89,0,67.47-20.1,86.14-50.25,18.66-31.58,28.71-67.47,25.84-104.8,1.44-22.97-14.36-43.07-35.89-50.25-15.79-5.74-31.58-8.61-47.37-10.05-61.73-1.44-122.02-1.44-183.76-1.44-7.18,0-14.36,1.44-22.97,1.44l-43.07,215.34Z"/>
    <path class="cls-1" d="M2157.69,1561.92h-129.2c5.74-24.4,8.61-47.37,14.36-68.91,17.23-74.65,34.45-149.3,50.25-223.95,11.48-53.12-4.31-70.34-57.42-71.78-18.66,0-35.89,1.44-54.55,7.18-38.76,10.05-55.99,41.63-66.04,77.52-14.36,55.99-25.84,113.41-38.76,169.4-8.61,35.89-17.23,71.78-25.84,110.54h-127.77c0-7.18,1.44-15.79,2.87-22.97,20.1-89.01,40.2-179.45,60.29-268.45,10.05-47.37,1.44-73.21-58.86-74.65-17.23,0-34.45,1.44-51.68,7.18-31.58,7.18-55.99,31.58-63.17,63.17-11.48,44.5-22.97,87.57-33.02,132.07-11.48,51.68-22.97,103.36-34.45,155.04-1.44,2.87-2.87,5.74-4.31,8.61h-129.2c35.89-159.35,71.78-315.83,107.67-473.74l101.93-7.18,2.87,31.58c25.84-12.92,53.12-22.97,80.39-31.58,53.12-12.92,107.67-14.36,160.79-4.31,27.28,4.31,48.81,15.79,57.42,45.94,63.17-48.81,134.95-53.12,209.6-50.25,12.92,1.44,25.84,2.87,37.33,5.74,40.2,10.05,68.91,45.94,68.91,87.57,0,34.45-2.87,68.91-12.92,103.36-21.53,96.18-44.5,192.37-67.47,292.86Z"/>
    <path class="cls-1" d="M3663.62,1491.58c-24.41-53.12,0-93.31,25.84-130.64-11.48-15.79-20.1-34.45-27.28-53.12-10.05-54.55,4.31-110.54,38.76-153.61,31.58-43.07,77.52-63.17,127.77-73.21,20.1-4.31,40.2-7.18,60.29-5.74,48.81,2.87,96.18-8.61,143.56-17.23,41.63-7.18,83.26-17.23,129.2-25.84-8.61,35.89-15.79,68.91-22.97,103.36h-60.29c22.97,22.97,33.02,55.99,24.41,89.01-17.23,100.49-76.09,143.56-157.91,157.91-44.5,10.05-90.44,12.92-136.38,7.18h-24.41l-8.61,31.58c10.05,2.87,20.1,5.74,30.15,7.18,38.76,1.44,76.09,1.44,114.85,4.31,30.15,1.44,58.86,7.18,89.01,14.36,41.63,11.48,55.99,31.58,54.55,74.65-2.87,109.1-63.17,160.79-144.99,183.76-28.71,5.74-57.42,10.05-86.14,12.92-51.68,4.31-103.36,4.31-155.04-1.44-27.28-1.44-54.55-7.18-80.39-15.79-30.15-7.18-48.81-35.89-44.5-67.47-1.44-58.86,34.45-113.41,91.88-133.51l18.66-8.61ZM3794.26,1627.96c22.97-1.44,44.5-2.87,64.6-5.74,22.97-1.44,44.5-12.92,58.86-31.58,18.66-28.71,10.05-48.81-21.53-57.42-5.74-1.44-10.05-1.44-15.79-2.87-38.76-4.31-77.52-4.31-117.72,0-15.79,1.44-30.15,5.74-44.5,11.48-18.66,10.05-28.71,28.71-27.28,50.25,2.87,20.1,18.66,25.84,35.89,28.71,21.53,2.87,45.94,4.31,67.47,7.18h0ZM3867.47,1300.64v-2.87h27.28c44.5-4.31,67.47-22.97,77.52-64.6,5.74-25.84-2.87-43.07-27.28-50.25-33.02-8.61-67.47-8.61-100.49-1.44-31.58,7.18-51.68,31.58-55.99,68.91-4.31,18.66,8.61,37.33,27.28,41.63h1.44c15.79,4.31,33.02,7.18,50.25,8.61Z"/>
    <path class="cls-1" d="M176.58,1365.24l-44.5,190.93H0c21.53-104.8,47.37-208.16,70.34-312.96s48.81-208.16,73.21-314.39c7.18,0,12.92-1.44,18.66-1.44h282.81c35.89,0,73.21,5.74,107.67,15.79,53.12,14.36,90.44,63.17,87.57,117.72,1.44,63.17-14.36,124.9-45.94,180.88-38.76,68.91-100.49,106.23-179.45,117.72-41.63,4.31-83.26,7.18-124.9,7.18-37.33,0-74.65-1.44-113.41-1.44ZM249.79,1046.54l-45.94,196.68c66.04,0,130.64,2.87,193.8-1.44,41.63-1.44,77.52-31.58,87.57-71.78,7.18-21.53,11.48-44.5,11.48-66.04,1.44-24.4-15.79-47.37-40.2-51.68-12.92-2.87-27.28-5.74-40.2-5.74-53.12,0-109.1,1.44-166.53,0h0Z"/>
    <path class="cls-1" d="M2406.04,900.11l129.2,4.31-45.94,205.29c55.99-35.89,111.98-41.63,170.83-40.2,17.23,0,34.45,2.87,51.68,7.18,58.86,15.79,90.44,53.12,94.75,122.02,2.87,73.21-11.48,146.43-41.63,212.47-15.79,40.2-40.2,76.09-71.78,104.8-30.15,25.84-66.04,43.07-104.8,50.25-44.5,8.61-89.01,7.18-133.51-1.44-30.15-4.31-55.99-18.66-76.09-40.2l-35.89,43.07-84.7-10.05,147.87-657.5ZM2584.06,1194.41c-60.29-5.74-114.85,31.58-130.64,89.01-10.05,28.71-15.79,57.42-20.1,87.57-5.74,41.63,5.74,76.09,63.17,84.7,1.44,0,2.87,1.44,5.74,1.44,64.6,7.18,113.41-11.48,140.69-73.21,15.79-34.45,24.4-73.21,27.28-110.54,4.31-60.29-31.58-80.39-74.65-77.52-5.74-1.44-8.61-1.44-11.48-1.44h0Z"/>
    <path class="cls-1" d="M3660.75,674.73l97.62-107.67c71.78,48.81,159.35,67.47,244.05,51.68,27.28-5.74,38.76-22.97,37.33-57.42-17.23-21.53-43.07-20.1-66.04-24.4-38.76-7.18-78.96-12.92-117.72-22.97-20.1-5.74-38.76-14.36-57.42-25.84-24.41-14.36-40.2-41.63-41.63-70.34-4.31-48.81,8.61-99.06,35.89-140.69,24.41-34.45,58.86-60.29,100.49-70.34,66.04-17.23,133.51-22.97,200.98-12.92,38.76,4.31,76.09,12.92,111.98,25.84,12.92,5.74,25.84,12.92,40.2,20.1l-96.18,116.28c-54.55-28.71-117.72-40.2-179.45-34.45-8.61,0-15.79,1.44-24.41,2.87-31.58,8.61-38.76,18.66-35.89,54.55,12.92,14.36,31.58,15.79,48.81,18.66,33.02,5.74,66.04,10.05,99.06,17.23,30.15,4.31,58.86,14.36,84.7,28.71,30.15,15.79,48.81,45.94,48.81,80.39-1.44,63.17-17.23,122.02-68.91,166.53-25.84,21.53-55.99,35.89-89.01,41.63-93.31,20.1-189.5,17.23-281.38-8.61-33.02-8.61-64.6-25.84-91.88-48.81Z"/>
    <path class="cls-1" d="M3189.87,198.11h147.87c-4.31,22.97-8.61,45.94-12.92,67.47-17.23,80.39-34.45,162.22-51.68,242.61-2.87,17.23-4.31,34.45-2.87,51.68,1.44,22.97,17.23,41.63,40.2,45.94,33.02,8.61,68.91,8.61,101.93-1.44,40.2-11.48,58.86-41.63,67.47-78.96,10.05-43.07,18.66-84.7,28.71-127.77,12.92-64.6,27.28-129.2,41.63-195.24h146.43c-1.44,12.92-4.31,24.4-5.74,35.89-20.1,94.75-38.76,188.06-60.29,282.81-7.18,27.28-15.79,54.55-27.28,80.39-27.28,70.34-89.01,120.59-163.66,130.64-71.78,12.92-146.43,12.92-218.21-2.87-61.73-14.36-99.06-54.55-103.36-117.72-1.44-38.76,1.44-77.52,10.05-116.28,18.66-94.75,38.76-190.93,58.86-285.68,0-4.31,1.44-7.18,2.87-11.48Z"/>
    <path class="cls-1" d="M1648.05,176.58c-7.18,33.02-12.92,63.17-18.66,91.88,2.87,17.23,20.1,28.71,37.33,25.84h80.39c-5.74,28.71-10.05,54.55-15.79,78.96-5.74,31.58,2.87,43.07,33.02,43.07h68.91c0,11.48,0,21.53-1.44,33.02-8.61,47.37-24.4,93.31-47.37,136.38-40.2,74.65-113.41,124.9-196.68,137.82-66.04,12.92-134.95,11.48-200.98-5.74-80.39-21.53-123.46-76.09-124.9-159.35-2.87-84.7,18.66-169.4,60.29-244.05,38.76-67.47,104.8-114.85,180.88-129.2,37.33-8.61,76.09-11.48,114.85-11.48l30.15,2.87ZM1521.72,605.82c57.42-1.44,104.8-20.1,132.07-73.21,22.97-44.5,34.45-94.75,31.58-144.99,0-34.45-25.84-64.6-61.73-70.34-22.97-4.31-44.5-5.74-67.47-4.31-40.2,1.44-78.96,22.97-100.49,55.99-30.15,48.81-43.07,104.8-38.76,162.22,0,31.58,21.53,57.42,53.12,64.6,15.79,4.31,34.45,7.18,51.68,10.05Z"/>
    <path class="cls-1" d="M3182.7,1564.79h-127.77c34.45-159.35,71.78-317.26,107.67-475.18l101.93-7.18c1.44,11.48,1.44,22.97,2.87,35.89,17.23-8.61,33.02-18.66,48.81-25.84,25.84-11.48,53.12-18.66,81.83-18.66,28.71-1.44,55.99-1.44,84.7,0,63.17,5.74,97.62,38.76,97.62,104.8-1.44,41.63-7.18,81.83-17.23,120.59-17.23,80.39-35.89,159.35-54.55,239.74-1.44,8.61-4.31,15.79-7.18,24.4h-127.77c2.87-12.92,4.31-22.97,5.74-33.02,18.66-80.39,37.33-160.79,55.99-241.18,2.87-17.23,4.31-34.45,2.87-51.68,0-15.79-11.48-30.15-27.28-33.02-70.34-15.79-139.25,0-159.35,77.52-12.92,47.37-22.97,96.18-34.45,143.56-8.61,40.2-18.66,81.83-27.28,122.02-2.87,5.74-4.31,11.48-7.18,17.23Z"/>
    <path class="cls-1" d="M1294.9,1079.56h124.9c0,8.61,0,15.79-1.44,24.4-21.53,93.31-43.07,186.63-66.04,278.5-10.05,43.07-28.71,83.26-57.42,116.28-30.15,34.45-73.21,57.42-117.72,63.17-54.55,10.05-111.98,10.05-166.53,0-55.99-10.05-101.93-37.33-103.36-116.28,0-53.12,12.92-104.8,24.4-156.48,14.36-61.73,28.71-123.46,43.07-186.63,1.44-8.61,4.31-17.23,7.18-24.4h129.2c-11.48,53.12-24.4,103.36-34.45,153.61s-22.97,101.93-33.02,152.17c-7.18,38.76,7.18,57.42,45.94,64.6,22.97,4.31,47.37,2.87,70.34-2.87,30.15-5.74,53.12-28.71,61.73-57.42,10.05-34.45,18.66-68.91,27.28-103.36,15.79-66.04,30.15-134.95,45.94-205.29Z"/>
    <path class="cls-1" d="M2937.21,0h146.43c-5.74,30.15-11.48,60.29-17.23,89.01l-80.39,387.61c-5.74,28.71-12.92,58.86-18.66,87.57-5.74,27.28,2.87,38.76,30.15,40.2h31.58c-4.31,22.97-8.61,43.07-12.92,63.17s-8.61,38.76-12.92,58.86c-40.2,8.61-80.39,8.61-120.59,0-37.33-7.18-68.91-24.4-73.22-78.96-1.44-38.76,2.87-76.09,12.92-113.41,27.28-129.2,53.12-258.41,80.39-387.61,10.05-45.94,20.1-91.88,28.71-139.25,2.87-1.44,4.31-4.31,5.74-7.18Z"/>
    <path class="cls-1" d="M981.94,192.37l117.72-8.61,4.31,53.12c55.99-41.63,116.28-55.99,183.76-57.42l-30.15,140.69c-22.97,2.87-45.94,4.31-68.91,8.61-63.17,12.92-97.62,54.55-110.54,114.85-18.66,90.44-38.76,180.88-57.42,272.76h-149.3c37.33-175.14,73.21-348.85,110.54-523.99Z"/>
    <path class="cls-1" d="M766.6,900.11h127.77c-5.74,25.84-10.05,48.81-14.36,71.78-33.02,144.99-66.04,288.55-99.06,433.55-1.44,4.31-2.87,8.61-2.87,12.92-2.87,12.92,4.31,24.4,17.23,28.71h37.33l-24.4,110.54c-43.07,5.74-87.57,11.48-130.64-8.61-22.97-10.05-37.33-34.45-35.89-60.29,0-25.84,2.87-50.25,7.18-76.09,37.33-167.96,76.09-335.93,114.85-505.33,0-2.87,1.44-5.74,2.87-7.18Z"/>
    <path class="cls-1" d="M2928.6,1082.43h130.64c-37.33,162.22-73.22,321.57-109.1,480.92h-130.64l109.1-480.92Z"/>
    <path class="cls-1" d="M1912.2,167.96h122.02c-5.74,28.71-11.48,54.55-17.23,81.83h-122.02l-25.84,120.59h-91.88c8.61-40.2,15.79-78.96,24.41-120.59-40.2-1.44-80.39,0-122.02-1.44,5.74-28.71,11.48-55.99,17.23-83.26h122.02l25.84-120.59h91.88c-8.61,43.07-17.23,81.83-24.4,123.46Z"/>
    <path class="cls-1" d="M2965.92,917.34h130.64c-5.74,41.63-17.23,81.83-27.28,122.02h-130.64c8.61-41.63,17.23-80.39,27.28-122.02Z"/>
  </g>
  <g>
    <path class="cls-1" d="M25.7,2004.08v-149.3h67.47c14.36-1.44,28.71,2.87,40.2,11.48,8.61,8.61,12.92,21.53,12.92,34.45,1.44,12.92-4.31,25.84-12.92,35.89-11.48,10.05-25.84,14.36-40.2,12.92h-47.37v54.55h-20.1ZM44.37,1930.86h47.37c8.61,0,17.23-1.44,24.4-7.18,5.74-5.74,8.61-14.36,8.61-22.97,1.44-8.61-1.44-15.79-7.18-21.53-7.18-4.31-15.79-7.18-24.4-5.74h-47.37l-1.44,57.42Z"/>
    <path class="cls-1" d="M193.67,2004.08c-7.18,1.44-14.36-1.44-20.1-5.74-4.31-7.18-5.74-14.36-5.74-22.97v-126.33h18.66v124.9c0,4.31,0,7.18,2.87,11.48,2.87,2.87,7.18,2.87,10.05,2.87h4.31v17.23l-10.05-1.44Z"/>
    <path class="cls-1" d="M298.47,2002.64c-8.61,2.87-17.23,2.87-25.84,2.87s-17.23-1.44-25.84-2.87c-5.74-1.44-11.48-5.74-14.36-10.05s-5.74-10.05-7.18-15.79c-1.44-7.18-1.44-14.36-1.44-21.53v-63.17h20.1v73.22c0,1.44,0,4.31,1.44,7.18,0,2.87,1.44,4.31,2.87,7.18,1.44,1.44,2.87,2.87,5.74,4.31,2.87,1.44,5.74,2.87,8.61,2.87,4.31,1.44,8.61,1.44,12.92,1.44s8.61,0,12.92-1.44c2.87,0,5.74-1.44,8.61-2.87,1.44-1.44,2.87-2.87,5.74-4.31,1.44-1.44,2.87-4.31,2.87-7.18s1.44-4.31,1.44-7.18v-71.78h18.66v63.17c0,7.18,0,14.36-1.44,21.53-1.44,5.74-2.87,10.05-7.18,15.79-7.18,2.87-12.92,7.18-18.66,8.61Z"/>
    <path class="cls-1" d="M350.15,2004.08v-110.54l15.79-1.44,1.44,10.05c5.74-8.61,18.66-12.92,40.2-12.92,8.61,0,15.79,1.44,24.4,4.31,4.31,1.44,8.61,5.74,10.05,10.05,5.74-8.61,20.1-14.36,43.07-14.36,5.74,0,11.48,0,17.23,2.87,4.31,1.44,8.61,2.87,11.48,5.74s5.74,5.74,7.18,10.05,2.87,8.61,2.87,12.92c0,5.74,1.44,10.05,0,15.79v68.91h-20.1v-76.09c0-2.87-1.44-5.74-1.44-8.61s-1.44-4.31-4.31-7.18c-2.87-1.44-4.31-2.87-7.18-4.31-4.31-1.44-8.61-1.44-12.92-1.44-5.74,0-11.48,0-17.23,2.87-4.31,1.44-7.18,4.31-10.05,7.18-1.44,2.87-2.87,7.18-4.31,10.05-1.44,4.31-1.44,8.61-1.44,12.92v61.73h-20.1v-76.09c0-2.87-1.44-5.74-2.87-8.61-1.44-2.87-4.31-5.74-7.18-7.18-4.31-1.44-10.05-1.44-14.36-1.44-5.74,0-11.48,0-15.79,2.87-4.31,1.44-7.18,4.31-10.05,7.18-1.44,2.87-2.87,7.18-4.31,10.05-1.44,4.31-1.44,8.61-1.44,12.92v61.73h-18.66Z"/>
    <path class="cls-1" d="M611.42,2005.52c-8.61,0-18.66,0-27.28-2.87-5.74-1.44-11.48-5.74-14.36-11.48l-4.31,12.92-14.36-1.44v-155.04h20.1v55.99c5.74-8.61,20.1-14.36,41.63-14.36,14.36-1.44,28.71,4.31,37.33,15.79,7.18,12.92,11.48,27.28,10.05,43.07,0,8.61,0,15.79-2.87,22.97-1.44,7.18-4.31,12.92-7.18,18.66-4.31,5.74-8.61,10.05-15.79,11.48-7.18,2.87-14.36,4.31-22.97,4.31ZM608.55,1988.29c10.05,1.44,18.66-2.87,24.4-10.05,5.74-8.61,8.61-18.66,7.18-30.15,0-10.05-1.44-21.53-7.18-30.15-5.74-7.18-15.79-11.48-25.84-10.05-10.05-1.44-21.53,1.44-28.71,8.61-5.74,8.61-10.05,20.1-8.61,31.58-1.44,11.48,1.44,21.53,8.61,31.58,8.61,5.74,18.66,10.05,30.15,8.61h0Z"/>
    <path class="cls-1" d="M684.64,1879.18v-22.97h20.1v22.97h-20.1ZM684.64,2004.08v-111.98h18.66v111.98h-18.66Z"/>
    <path class="cls-1" d="M733.45,2004.08v-110.54l15.79-1.44,1.44,10.05c7.18-8.61,20.1-12.92,41.63-12.92,7.18,0,14.36,1.44,21.53,2.87,5.74,1.44,10.05,5.74,12.92,10.05s4.31,8.61,5.74,14.36c1.44,5.74,1.44,12.92,1.44,18.66v68.91h-21.53v-74.65c0-2.87-1.44-5.74-1.44-8.61-1.44-2.87-2.87-4.31-4.31-7.18-2.87-1.44-5.74-2.87-8.61-2.87-4.31-1.44-8.61-1.44-12.92-1.44-10.05-1.44-18.66,1.44-25.84,8.61-4.31,7.18-7.18,15.79-7.18,24.4v61.73h-18.66Z"/>
    <path class="cls-1" d="M905.72,1962.45c-5.74,0-12.92,0-18.66-1.44-1.44,1.44-2.87,4.31-2.87,7.18s1.44,5.74,4.31,5.74c5.74,1.44,11.48,1.44,18.66,1.44,14.36-1.44,28.71,1.44,43.07,5.74,8.61,4.31,12.92,14.36,11.48,22.97,1.44,10.05-4.31,20.1-12.92,25.84-12.92,5.74-28.71,8.61-43.07,8.61-14.36,1.44-28.71-1.44-41.63-5.74-8.61-4.31-12.92-12.92-11.48-21.53-1.44-12.92,8.61-25.84,21.53-27.28-4.31-2.87-7.18-8.61-5.74-12.92,0-5.74,1.44-11.48,4.31-15.79-10.05-5.74-15.79-17.23-14.36-28.71-1.44-11.48,2.87-21.53,11.48-28.71,10.05-7.18,22.97-10.05,35.89-10.05h7.18l43.07-5.74v15.79h-17.23c10.05,5.74,15.79,15.79,14.36,27.28,1.44,10.05-2.87,21.53-11.48,27.28-11.48,8.61-22.97,11.48-35.89,10.05ZM905.72,2024.18c10.05,1.44,20.1,0,28.71-4.31,4.31-2.87,7.18-7.18,7.18-12.92s-2.87-10.05-7.18-11.48c-10.05-2.87-18.66-2.87-28.71-2.87-7.18,0-14.36,0-21.53,2.87-4.31,0-7.18,2.87-10.05,5.74-1.44,2.87-1.44,5.74-1.44,8.61,0,5.74,2.87,10.05,7.18,12.92,7.18,1.44,17.23,1.44,25.84,1.44h0ZM884.19,1942.35c14.36,5.74,28.71,5.74,43.07,0,4.31-4.31,7.18-10.05,7.18-15.79s-2.87-11.48-7.18-15.79c-7.18-4.31-14.36-5.74-21.53-4.31-7.18,0-15.79,1.44-21.53,4.31-8.61,7.18-8.61,20.1-1.44,28.71,0,1.44,0,2.87,1.44,2.87h0Z"/>
    <path class="cls-1" d="M987.55,2029.92l-5.74-10.05c4.31-1.44,7.18-4.31,10.05-7.18,1.44-2.87,2.87-5.74,2.87-8.61h-11.48v-27.28h24.4v20.1c0,7.18-1.44,14.36-4.31,20.1-4.31,5.74-10.05,10.05-15.79,12.92Z"/>
    <path class="cls-1" d="M1080.86,2004.08v-149.3h99.06v20.1h-78.96v44.5h77.52v18.66h-77.52v66.04h-20.1Z"/>
    <path class="cls-1" d="M1228.73,2004.08c-7.18,1.44-14.36-1.44-20.1-5.74-4.31-7.18-5.74-14.36-5.74-22.97v-126.33h18.66v124.9c0,4.31,0,7.18,2.87,11.48,2.87,2.87,7.18,2.87,10.05,2.87h4.31v17.23l-10.05-1.44Z"/>
    <path class="cls-1" d="M1307.68,2005.52c-15.79,1.44-30.15-4.31-41.63-14.36-17.23-27.28-17.23-61.73,0-87.57,24.4-18.66,58.86-18.66,84.7,0,17.23,27.28,17.23,61.73,0,87.57-12.92,11.48-27.28,15.79-43.07,14.36ZM1280.41,1978.24c15.79,12.92,38.76,12.92,54.55,0,11.48-18.66,11.48-41.63,0-60.29-15.79-12.92-38.76-12.92-54.55,0-11.48,18.66-11.48,41.63,0,60.29Z"/>
    <path class="cls-1" d="M1435.45,2005.52c-15.79,1.44-30.15-4.31-41.63-14.36-17.23-27.28-17.23-61.73,0-87.57,24.4-18.66,58.86-18.66,84.7,0,17.23,27.28,17.23,61.73,0,87.57-11.48,11.48-27.28,15.79-43.07,14.36ZM1408.17,1978.24c15.79,12.92,38.76,12.92,54.55,0,10.05-18.66,10.05-41.63,0-60.29-15.79-12.92-38.76-12.92-54.55,0-10.05,18.66-10.05,41.63,0,60.29Z"/>
    <path class="cls-1" d="M1514.41,2004.08v-110.54l15.79-1.44,1.44,12.92c2.87-4.31,8.61-8.61,12.92-10.05,7.18-2.87,15.79-4.31,24.4-4.31v20.1c-17.23-2.87-33.02,8.61-35.89,25.84v67.47h-18.66Z"/>
    <path class="cls-1" d="M1635,2004.08v-156.48h20.1v54.55c5.74-8.61,18.66-12.92,38.76-12.92,7.18,0,14.36,1.44,21.53,2.87,5.74,1.44,10.05,5.74,11.48,10.05,2.87,4.31,4.31,8.61,5.74,14.36s1.44,12.92,1.44,18.66v68.91h-20.1v-74.65c0-2.87-1.44-5.74-1.44-8.61-1.44-2.87-2.87-4.31-4.31-7.18-2.87-1.44-5.74-2.87-8.61-4.31-4.31-1.44-8.61-1.44-12.92-1.44-10.05-1.44-18.66,1.44-25.84,8.61-4.31,7.18-7.18,15.79-7.18,24.4v61.73l-18.66,1.44Z"/>
    <path class="cls-1" d="M1811.57,2005.52c-7.18,0-15.79-1.44-22.97-2.87-5.74-1.44-11.48-4.31-15.79-8.61-4.31-2.87-7.18-7.18-10.05-12.92-2.87-5.74-4.31-10.05-4.31-15.79-1.44-5.74-1.44-12.92-1.44-18.66,0-7.18,1.44-14.36,2.87-22.97,1.44-7.18,4.31-12.92,8.61-18.66,4.31-5.74,10.05-10.05,17.23-12.92,8.61-2.87,17.23-4.31,27.28-4.31,5.74,0,11.48,0,17.23,1.44,4.31,1.44,8.61,2.87,12.92,5.74,2.87,1.44,5.74,4.31,8.61,8.61,1.44,2.87,4.31,7.18,5.74,10.05,1.44,4.31,2.87,8.61,2.87,12.92s1.44,8.61,1.44,12.92v14.36h-83.26c0,8.61,2.87,18.66,8.61,25.84,7.18,7.18,17.23,10.05,27.28,8.61,7.18,0,14.36,0,20.1-2.87,5.74-1.44,10.05-4.31,15.79-8.61l10.05,12.92c-15.79,11.48-31.58,17.23-48.81,15.79ZM1810.14,1906.46c-8.61-1.44-18.66,1.44-25.84,8.61-5.74,7.18-8.61,14.36-8.61,22.97h63.17c0-4.31,0-7.18-1.44-10.05,0-2.87-1.44-5.74-1.44-8.61-1.44-2.87-2.87-5.74-4.31-7.18-2.87-1.44-5.74-2.87-8.61-4.31-2.87-1.44-7.18-1.44-12.92-1.44h0Z"/>
    <path class="cls-1" d="M1913.5,2005.52c-11.48,1.44-22.97-1.44-31.58-8.61-14.36-17.23-11.48-43.07,5.74-57.42h0c18.66-7.18,37.33-10.05,57.42-8.61h5.74c0-7.18-1.44-12.92-5.74-18.66-7.18-4.31-14.36-5.74-22.97-5.74-11.48,0-22.97,2.87-33.02,10.05l-10.05-15.79c5.74-4.31,12.92-7.18,18.66-8.61,8.61-2.87,17.23-4.31,25.84-4.31,7.18,0,15.79,0,22.97,2.87,5.74,1.44,10.05,4.31,12.92,8.61s5.74,8.61,5.74,12.92c1.44,7.18,1.44,14.36,1.44,20.1v40.2c0,2.87,0,7.18,1.44,10.05,1.44,1.44,4.31,1.44,8.61,1.44v17.23h-8.61c-4.31,0-8.61,0-12.92-2.87-2.87-2.87-5.74-5.74-5.74-10.05,0,12.92-14.36,17.23-35.89,17.23ZM1917.81,1988.29c10.05,1.44,20.1-1.44,27.28-8.61,5.74-7.18,10.05-17.23,8.61-25.84v-7.18h-5.74c-11.48,0-22.97,0-34.45,1.44-5.74,0-11.48,2.87-15.79,7.18-2.87,4.31-5.74,8.61-4.31,14.36,0,5.74,1.44,10.05,5.74,14.36,4.31,4.31,11.48,5.74,18.66,4.31h0Z"/>
    <path class="cls-1" d="M1993.89,1909.33v-17.23h20.1l2.87-31.58,15.79-2.87v34.45h30.15v17.23h-30.15v60.29c0,4.31,0,8.61,2.87,12.92,4.31,2.87,8.61,4.31,12.92,4.31h12.92v17.23h-17.23c-8.61,1.44-18.66-1.44-25.84-7.18-5.74-7.18-7.18-15.79-7.18-22.97v-63.17l-17.23-1.44Z"/>
    <path class="cls-1" d="M2087.21,1879.18v-22.97h20.1v22.97h-20.1ZM2087.21,2004.08v-111.98h18.66v111.98h-18.66Z"/>
    <path class="cls-1" d="M2137.45,2004.08v-110.54l15.79-1.44,1.44,10.05c7.18-8.61,20.1-12.92,41.63-12.92,7.18,0,14.36,1.44,21.53,2.87,5.74,1.44,10.05,5.74,12.92,10.05s4.31,8.61,5.74,14.36c1.44,5.74,1.44,12.92,1.44,18.66v68.91h-20.1v-74.65c0-2.87-1.44-5.74-1.44-8.61-1.44-2.87-2.87-4.31-4.31-7.18-2.87-1.44-5.74-2.87-8.61-4.31-4.31-1.44-8.61-1.44-12.92-1.44-10.05-1.44-18.66,1.44-25.84,8.61-4.31,7.18-7.18,15.79-7.18,24.4v61.73l-20.1,1.44Z"/>
    <path class="cls-1" d="M2308.29,1962.45c-5.74,0-12.92,0-18.66-1.44-1.44,1.44-2.87,4.31-2.87,7.18s1.44,5.74,4.31,5.74c5.74,1.44,11.48,1.44,17.23,1.44,14.36-1.44,28.71,1.44,43.07,5.74,8.61,4.31,12.92,14.36,11.48,22.97,1.44,10.05-4.31,20.1-12.92,25.84-12.92,5.74-28.71,8.61-43.07,8.61-14.36,1.44-28.71-1.44-41.63-5.74-8.61-4.31-12.92-12.92-11.48-21.53-1.44-12.92,8.61-25.84,21.53-27.28-4.31-2.87-7.18-8.61-5.74-12.92,0-5.74,1.44-11.48,5.74-15.79-10.05-5.74-14.36-17.23-12.92-28.71-1.44-11.48,2.87-21.53,11.48-28.71,10.05-7.18,22.97-10.05,35.89-10.05h7.18l44.5-5.74v15.79h-18.66c10.05,5.74,15.79,15.79,14.36,27.28,1.44,10.05-2.87,20.1-11.48,27.28-11.48,8.61-24.41,11.48-37.33,10.05ZM2308.29,2024.18c10.05,1.44,20.1-1.44,28.71-4.31,4.31-2.87,7.18-7.18,7.18-12.92s-2.87-10.05-7.18-11.48c-10.05-2.87-18.66-2.87-28.71-2.87-7.18,0-14.36,0-22.97,2.87-7.18,0-12.92,5.74-11.48,12.92v1.44c0,5.74,2.87,10.05,7.18,12.92,10.05,1.44,18.66,1.44,27.28,1.44h0ZM2286.75,1942.35c7.18,4.31,14.36,5.74,21.53,4.31,7.18,0,15.79-1.44,21.53-4.31,4.31-4.31,7.18-10.05,5.74-15.79,0-5.74-1.44-11.48-7.18-15.79-14.36-5.74-28.71-5.74-43.07,0-4.31,4.31-7.18,10.05-7.18,15.79,1.44,5.74,4.31,11.48,8.61,15.79h0Z"/>
    <path class="cls-1" d="M2466.2,2005.52c-11.48,1.44-22.97-1.44-31.58-8.61-14.36-17.23-11.48-43.07,5.74-57.42h0c18.66-7.18,37.33-10.05,57.42-8.61h7.18c0-7.18-1.44-12.92-5.74-18.66-7.18-4.31-14.36-5.74-22.97-5.74-11.48,0-22.97,2.87-33.02,10.05l-10.05-15.79c5.74-4.31,12.92-7.18,18.66-8.61,8.61-2.87,17.23-4.31,25.84-4.31,7.18,0,15.79,0,22.97,2.87,5.74,1.44,10.05,4.31,12.92,8.61,2.87,4.31,5.74,8.61,7.18,12.92,1.44,7.18,1.44,14.36,1.44,20.1v40.2c0,2.87,0,7.18,1.44,10.05,1.44,1.44,4.31,1.44,10.05,1.44v17.23h-8.61c-4.31,0-8.61,0-12.92-2.87-2.87-2.87-5.74-5.74-5.74-10.05-4.31,12.92-18.66,17.23-40.2,17.23ZM2469.07,1988.29c10.05,1.44,20.1-1.44,27.28-8.61,7.18-7.18,10.05-17.23,8.61-27.28v-7.18h-5.74c-11.48,0-22.97,0-34.45,1.44-5.74,0-11.48,2.87-15.79,7.18-2.87,4.31-5.74,8.61-4.31,14.36,0,5.74,1.44,10.05,5.74,14.36,5.74,5.74,12.92,7.18,18.66,5.74h0Z"/>
    <path class="cls-1" d="M2559.52,2004.08v-110.54l15.79-1.44,1.44,10.05c7.18-8.61,20.1-12.92,41.63-12.92,7.18,0,14.36,1.44,21.53,2.87,5.74,1.44,10.05,5.74,12.92,10.05s4.31,8.61,5.74,14.36c1.44,5.74,1.44,12.92,1.44,18.66v68.91h-20.1v-74.65c0-2.87-1.44-5.74-1.44-8.61-1.44-2.87-2.87-4.31-4.31-7.18-2.87-1.44-5.74-2.87-8.61-4.31-4.31-1.44-8.61-1.44-12.92-1.44-10.05-1.44-18.66,1.44-25.84,8.61-4.31,7.18-7.18,15.79-7.18,24.4v61.73l-20.1,1.44Z"/>
    <path class="cls-1" d="M2728.92,2005.52c-14.36,1.44-28.71-4.31-37.33-15.79-8.61-12.92-11.48-27.28-11.48-43.07-1.44-15.79,2.87-30.15,11.48-43.07,10.05-10.05,22.97-15.79,37.33-14.36,21.53,0,34.45,4.31,40.2,12.92v-55.99h20.1v155.04l-15.79,1.44-2.87-12.92c-4.31,5.74-8.61,8.61-15.79,11.48-7.18,4.31-17.23,4.31-25.84,4.31ZM2733.22,1988.29c10.05,1.44,20.1-2.87,27.28-8.61,5.74-8.61,10.05-20.1,8.61-31.58,1.44-11.48-1.44-21.53-8.61-30.15-8.61-7.18-18.66-10.05-28.71-8.61-10.05-1.44-18.66,2.87-25.84,10.05-5.74,8.61-7.18,18.66-7.18,30.15,0,10.05,1.44,21.53,7.18,30.15,7.18,5.74,17.23,8.61,27.28,8.61h0Z"/>
    <path class="cls-1" d="M2921.28,2005.52c-22.97,0-44.5-5.74-64.6-17.23l10.05-15.79c15.79,10.05,34.45,15.79,53.12,15.79,11.48,1.44,21.53-1.44,31.58-5.74,7.18-4.31,10.05-11.48,10.05-20.1,0-2.87,0-7.18-1.44-10.05s-2.87-4.31-5.74-5.74c-2.87-1.44-5.74-2.87-8.61-4.31-4.31-1.44-8.61-1.44-11.48-2.87s-8.61-1.44-14.36-2.87-14.36-2.87-18.66-4.31-10.05-2.87-14.36-4.31-8.61-4.31-11.48-7.18-5.74-7.18-7.18-11.48c-1.44-5.74-2.87-10.05-2.87-15.79-1.44-12.92,4.31-24.4,14.36-31.58,12.92-7.18,27.28-10.05,41.63-10.05,18.66-1.44,37.33,4.31,54.55,12.92l-11.48,17.23c-12.92-8.61-27.28-11.48-43.07-11.48-10.05,0-18.66,1.44-27.28,5.74-5.74,4.31-8.61,10.05-8.61,17.23,0,2.87,0,5.74,1.44,8.61,1.44,2.87,2.87,4.31,4.31,5.74,2.87,1.44,5.74,2.87,8.61,4.31,2.87,1.44,7.18,2.87,11.48,2.87,2.87,0,8.61,1.44,14.36,2.87l14.36,2.87c2.87,1.44,7.18,1.44,11.48,2.87,4.31,1.44,7.18,2.87,11.48,4.31,2.87,1.44,5.74,2.87,8.61,5.74,2.87,1.44,5.74,4.31,7.18,7.18s2.87,5.74,4.31,8.61c1.44,4.31,1.44,8.61,1.44,12.92,1.44,12.92-4.31,25.84-14.36,34.45-14.36,7.18-31.58,10.05-48.81,8.61Z"/>
    <path class="cls-1" d="M3005.98,2004.08v-110.54l15.79-1.44,1.44,10.05c7.18-8.61,20.1-12.92,41.63-12.92,7.18,0,14.36,1.44,21.53,2.87,5.74,1.44,10.05,5.74,12.92,10.05s4.31,8.61,5.74,14.36c1.44,5.74,1.44,12.92,1.44,18.66v68.91h-20.1v-74.65c0-2.87-1.44-5.74-1.44-8.61-1.44-2.87-2.87-4.31-4.31-7.18-2.87-1.44-5.74-2.87-8.61-4.31-4.31-1.44-8.61-1.44-12.92-1.44-10.05-1.44-18.66,1.44-25.84,8.61-4.31,7.18-7.18,15.79-7.18,24.4v61.73l-20.1,1.44Z"/>
    <path class="cls-1" d="M3182.56,2005.52c-15.79,1.44-30.15-4.31-41.63-14.36-17.23-27.28-17.23-61.73,0-87.57,24.4-18.66,58.86-18.66,84.7,0,17.23,27.28,17.23,61.73,0,87.57-12.92,11.48-28.71,15.79-43.07,14.36ZM3155.28,1978.24c15.79,12.92,38.76,12.92,54.55,0,10.05-18.66,10.05-41.63,0-60.29-15.79-12.92-38.76-12.92-54.55,0-11.48,18.66-11.48,41.63,0,60.29Z"/>
    <path class="cls-1" d="M3284.49,2004.08l-38.76-113.41h20.1l28.71,84.7,27.28-84.7h18.66l27.28,84.7,28.71-84.7h20.1l-38.76,113.41h-20.1l-27.28-83.26-27.28,83.26h-18.66Z"/>
    <path class="cls-1" d="M3481.16,2004.08v-110.54l15.79-1.44,1.44,10.05c5.74-8.61,18.66-12.92,40.2-12.92,8.61,0,15.79,1.44,24.4,4.31,4.31,1.44,8.61,5.74,10.05,10.05,5.74-8.61,20.1-14.36,43.07-14.36,5.74,0,11.48,0,17.23,2.87,4.31,1.44,8.61,2.87,11.48,5.74,2.87,2.87,5.74,5.74,7.18,10.05s2.87,8.61,2.87,12.92c0,5.74,1.44,10.05,0,15.79v68.91h-20.1v-76.09c0-2.87-1.44-5.74-1.44-8.61s-1.44-4.31-4.31-7.18c-2.87-1.44-4.31-2.87-7.18-4.31-4.31-1.44-8.61-1.44-12.92-1.44-5.74,0-11.48,0-15.79,2.87-4.31,1.44-7.18,4.31-10.05,7.18-1.44,2.87-2.87,7.18-4.31,10.05-1.44,4.31-1.44,8.61-1.44,12.92v61.73h-20.1v-76.09c0-2.87-1.44-5.74-2.87-8.61-1.44-2.87-4.31-5.74-8.61-7.18s-10.05-1.44-14.36-1.44c-5.74,0-11.48,0-15.79,2.87-4.31,1.44-7.18,4.31-10.05,7.18-1.44,2.87-2.87,7.18-4.31,10.05-1.44,4.31-1.44,8.61-1.44,12.92v61.73h-18.66Z"/>
    <path class="cls-1" d="M3732.39,2005.52c-7.18,0-15.79-1.44-22.97-2.87-5.74-1.44-11.48-4.31-15.79-8.61-4.31-2.87-7.18-7.18-10.05-11.48-2.87-5.74-4.31-10.05-4.31-15.79-1.44-5.74-1.44-12.92-1.44-18.66,0-7.18,0-15.79,2.87-22.97,1.44-7.18,4.31-12.92,8.61-18.66,4.31-5.74,10.05-10.05,17.23-12.92,8.61-2.87,17.23-4.31,27.28-4.31,5.74,0,11.48,0,17.23,1.44,4.31,1.44,8.61,2.87,12.92,5.74,2.87,1.44,5.74,4.31,8.61,8.61,1.44,2.87,4.31,7.18,5.74,10.05,1.44,4.31,2.87,8.61,2.87,12.92s1.44,8.61,1.44,12.92v14.36h-83.26c0,8.61,2.87,18.66,8.61,25.84,7.18,7.18,17.23,10.05,27.28,8.61,7.18,0,14.36,0,20.1-2.87,5.74-1.44,10.05-4.31,15.79-8.61l10.05,12.92c-15.79,10.05-33.02,15.79-48.81,14.36ZM3730.95,1906.46c-8.61-1.44-18.66,1.44-25.84,8.61-5.74,7.18-8.61,14.36-8.61,22.97h64.6c0-4.31,0-7.18-1.44-10.05,0-2.87-1.44-5.74-1.44-8.61-1.44-2.87-2.87-5.74-4.31-7.18l-8.61-4.31c-5.74-1.44-10.05-1.44-14.36-1.44h0Z"/>
    <path class="cls-1" d="M3830.01,2004.08c-7.18,1.44-14.36-1.44-20.1-5.74-4.31-7.18-5.74-14.36-5.74-22.97v-126.33h20.1v124.9c0,4.31,0,7.18,2.87,11.48,2.87,2.87,5.74,2.87,10.05,2.87h5.74v17.23l-12.92-1.44Z"/>
    <path class="cls-1" d="M3851.54,1909.33v-17.23h20.1l2.87-31.58,15.79-2.87v34.45h28.71v17.23h-28.71v60.29c0,4.31,0,8.61,2.87,12.92,1.44,2.87,5.74,4.31,12.92,4.31h12.92v17.23h-17.23c-8.61,1.44-18.66-1.44-25.84-7.18-5.74-7.18-7.18-15.79-7.18-22.97v-63.17l-17.23-1.44Z"/>
    <path class="cls-1" d="M3944.86,1879.18v-22.97h20.1v22.97h-20.1ZM3944.86,2004.08v-111.98h20.1v111.98h-20.1Z"/>
    <path class="cls-1" d="M3993.67,2004.08v-110.54l15.79-1.44,1.44,10.05c7.18-8.61,20.1-12.92,41.63-12.92,7.18,0,14.36,1.44,21.53,2.87,5.74,1.44,10.05,5.74,12.92,10.05,2.87,4.31,4.31,8.61,5.74,14.36,1.44,5.74,1.44,12.92,1.44,18.66v68.91h-20.1v-74.65c0-2.87-1.44-5.74-1.44-8.61-1.44-2.87-2.87-4.31-4.31-7.18-2.87-1.44-5.74-2.87-7.18-4.31-4.31-1.44-8.61-1.44-12.92-1.44-10.05-1.44-18.66,1.44-25.84,8.61-4.31,7.18-7.18,15.79-7.18,24.4v61.73l-21.53,1.44Z"/>
    <path class="cls-1" d="M4165.94,1962.45c-5.74,0-12.92,0-18.66-1.44-1.44,1.44-2.87,4.31-2.87,7.18s1.44,5.74,4.31,5.74c5.74,1.44,11.48,1.44,17.23,1.44,14.36-1.44,28.71,1.44,43.07,5.74,8.61,4.31,12.92,14.36,11.48,22.97,1.44,10.05-4.31,20.1-12.92,25.84-12.92,5.74-28.71,8.61-43.07,8.61-14.36,1.44-28.71-1.44-41.63-5.74-8.61-4.31-12.92-12.92-11.48-21.53-1.44-12.92,8.61-25.84,21.53-27.28-4.31-2.87-7.18-8.61-5.74-12.92,0-5.74,1.44-11.48,5.74-15.79-10.05-5.74-15.79-17.23-14.36-28.71-1.44-11.48,2.87-21.53,11.48-28.71,10.05-7.18,22.97-10.05,35.89-10.05h7.18l44.5-5.74v15.79h-18.66c10.05,5.74,15.79,15.79,14.36,27.28,1.44,10.05-2.87,20.1-11.48,27.28-10.05,7.18-22.97,11.48-35.89,10.05ZM4165.94,2024.18c10.05,1.44,20.1-1.44,28.71-4.31,4.31-2.87,7.18-7.18,7.18-12.92s-2.87-10.05-7.18-11.48c-10.05-2.87-18.66-2.87-28.71-2.87-7.18,0-14.36,0-22.97,2.87-4.31,0-7.18,2.87-10.05,5.74-1.44,2.87-2.87,5.74-1.44,8.61,0,5.74,2.87,10.05,7.18,12.92,10.05,1.44,18.66,1.44,27.28,1.44h0ZM4144.4,1942.35c7.18,4.31,14.36,5.74,21.53,4.31,7.18,0,15.79-1.44,21.53-4.31,4.31-4.31,7.18-10.05,7.18-15.79s-1.44-11.48-7.18-15.79c-7.18-4.31-14.36-5.74-21.53-4.31-7.18,0-15.79,1.44-21.53,4.31-8.61,8.61-8.61,21.53,0,31.58-1.44-1.44,0,0,0,0h0Z"/>
  </g>
</svg>